<svg width="3021" height="2350" viewBox="0 0 3021 2350" fill="none" xmlns="http://www.w3.org/2000/svg">
<path d="M268.018 1568.77C288.772 1526.23 335.418 1502.84 381.92 1511.65L1567.5 1736.15C1634.8 1748.89 1672.08 1821.63 1643.12 1883.7L1464.16 2267.33C1443.83 2310.91 1396.49 2335.11 1349.26 2326.07L157.301 2097.76C89.369 2084.75 52.3563 2010.75 82.6873 1948.59L268.018 1568.77Z" fill="#172CEC" fill-opacity="0.32"/>
<path d="M268.018 1568.77C288.772 1526.23 335.418 1502.84 381.92 1511.65L1567.5 1736.15C1634.8 1748.89 1672.08 1821.63 1643.12 1883.7L1464.16 2267.33C1443.83 2310.91 1396.49 2335.11 1349.26 2326.07L157.301 2097.76C89.369 2084.75 52.3563 2010.75 82.6873 1948.59L268.018 1568.77Z" fill="url(#paint0_linear)"/>
<path d="M259.846 1539.18C280.601 1496.64 327.246 1473.25 373.748 1482.06L1559.33 1706.56C1626.63 1719.3 1663.9 1792.04 1634.95 1854.12L1455.99 2237.74C1435.66 2281.32 1388.32 2305.52 1341.08 2296.48L149.129 2068.17C81.1971 2055.16 44.1844 1981.17 74.5155 1919L259.846 1539.18Z" fill="#8F96D7" fill-opacity="0.83"/>
<path d="M259.846 1539.18C280.601 1496.64 327.246 1473.25 373.748 1482.06L1559.33 1706.56C1626.63 1719.3 1663.9 1792.04 1634.95 1854.12L1455.99 2237.74C1435.66 2281.32 1388.32 2305.52 1341.08 2296.48L149.129 2068.17C81.1971 2055.16 44.1844 1981.17 74.5155 1919L259.846 1539.18Z" fill="url(#paint1_linear)"/>
<path d="M257.23 1517.38C277.984 1474.85 324.629 1451.45 371.131 1460.26L1556.71 1684.76C1624.01 1697.51 1661.29 1770.24 1632.33 1832.32L1453.38 2215.94C1433.05 2259.53 1385.7 2283.72 1338.47 2274.68L146.513 2046.38C78.5807 2033.36 41.568 1959.37 71.899 1897.21L257.23 1517.38Z" fill="#172CEC" fill-opacity="0.32"/>
<path d="M257.23 1517.38C277.984 1474.85 324.629 1451.45 371.131 1460.26L1556.71 1684.76C1624.01 1697.51 1661.29 1770.24 1632.33 1832.32L1453.38 2215.94C1433.05 2259.53 1385.7 2283.72 1338.47 2274.68L146.513 2046.38C78.5807 2033.36 41.568 1959.37 71.899 1897.21L257.23 1517.38Z" fill="url(#paint2_linear)"/>
<path d="M249.058 1487.79C269.812 1445.26 316.458 1421.86 362.959 1430.67L1548.54 1655.17C1615.84 1667.92 1653.12 1740.65 1624.16 1802.73L1445.2 2186.35C1424.87 2229.94 1377.53 2254.14 1330.3 2245.09L138.341 2016.79C70.4088 2003.78 33.3961 1929.78 63.7271 1867.62L249.058 1487.79Z" fill="#8F96D7" fill-opacity="0.83"/>
<path d="M249.058 1487.79C269.812 1445.26 316.458 1421.86 362.959 1430.67L1548.54 1655.17C1615.84 1667.92 1653.12 1740.65 1624.16 1802.73L1445.2 2186.35C1424.87 2229.94 1377.53 2254.14 1330.3 2245.09L138.341 2016.79C70.4088 2003.78 33.3961 1929.78 63.7271 1867.62L249.058 1487.79Z" fill="url(#paint3_linear)"/>
<path d="M528 1463.5V99.5C856.5 2.28882e-05 1228.5 50 1352.5 279V1643L528 1463.5Z" fill="white" stroke="black" stroke-width="3"/>
<g filter="url(#filter0_d)">
<path d="M528 1460.5V99.5C614.631 175.545 696.113 219.934 713.5 355V1631.5L528 1460.5Z" fill="#B47DD6"/>
</g>
<g filter="url(#filter1_d)">
<path d="M1353 1640.87V279C1233.34 352.008 1126.02 360.271 1102 489.944V1704L1353 1640.87Z" fill="#B47DD6"/>
</g>
<path d="M780.163 722.167C780.892 706.812 794.274 695.164 809.582 696.558L1008.02 714.633C1022.51 715.953 1033.35 728.521 1032.52 743.051L1026.21 854.291C1025.3 870.39 1010.57 882.104 994.68 879.371L798.024 845.546C784.59 843.235 774.985 831.273 775.632 817.657L780.163 722.167Z" fill="#B396F0"/>
<path d="M815.68 781.922V822H802.18V719.625H839.938C851.141 719.625 859.906 722.484 866.234 728.203C872.609 733.922 875.797 741.492 875.797 750.914C875.797 760.852 872.68 768.516 866.445 773.906C860.258 779.25 851.375 781.922 839.797 781.922H815.68ZM815.68 770.883H839.938C847.156 770.883 852.688 769.195 856.531 765.82C860.375 762.398 862.297 757.477 862.297 751.055C862.297 744.961 860.375 740.086 856.531 736.43C852.688 732.773 847.414 730.875 840.711 730.734H815.68V770.883ZM937.109 822C936.359 820.5 935.75 817.828 935.281 813.984C929.234 820.266 922.016 823.406 913.625 823.406C906.125 823.406 899.961 821.297 895.133 817.078C890.352 812.812 887.961 807.422 887.961 800.906C887.961 792.984 890.961 786.844 896.961 782.484C903.008 778.078 911.492 775.875 922.414 775.875H935.07V769.898C935.07 765.352 933.711 761.742 930.992 759.07C928.273 756.352 924.266 754.992 918.969 754.992C914.328 754.992 910.438 756.164 907.297 758.508C904.156 760.852 902.586 763.688 902.586 767.016H889.508C889.508 763.219 890.844 759.562 893.516 756.047C896.234 752.484 899.891 749.672 904.484 747.609C909.125 745.547 914.211 744.516 919.742 744.516C928.508 744.516 935.375 746.719 940.344 751.125C945.312 755.484 947.891 761.508 948.078 769.195V804.211C948.078 811.195 948.969 816.75 950.75 820.875V822H937.109ZM915.523 812.086C919.602 812.086 923.469 811.031 927.125 808.922C930.781 806.812 933.43 804.07 935.07 800.695V785.086H924.875C908.938 785.086 900.969 789.75 900.969 799.078C900.969 803.156 902.328 806.344 905.047 808.641C907.766 810.938 911.258 812.086 915.523 812.086ZM992.234 802.945L1009.95 745.922H1023.88L993.289 833.742C988.555 846.398 981.031 852.727 970.719 852.727L968.258 852.516L963.406 851.602V841.055L966.922 841.336C971.328 841.336 974.75 840.445 977.188 838.664C979.672 836.883 981.711 833.625 983.305 828.891L986.188 821.156L959.047 745.922H973.25L992.234 802.945Z" fill="#FBF7F7"/>
<line x1="587.5" y1="151" x2="587.5" y2="1508" stroke="white"/>
<line x1="602.5" y1="164" x2="602.5" y2="1529" stroke="white"/>
<line x1="619.5" y1="179.999" x2="621.491" y2="1546" stroke="white"/>
<line x1="1262.5" y1="331" x2="1261.42" y2="1659" stroke="white"/>
<line x1="1244.5" y1="339" x2="1244.43" y2="1664" stroke="white"/>
<line x1="1228.5" y1="347" x2="1227.5" y2="1668" stroke="white"/>
<path d="M1349.5 741H1933V1512H3018.5" stroke="#A156EC" stroke-width="5"/>
<path d="M1352 677H1998V1445H3016.5" stroke="#A156EC" stroke-width="5"/>
<path d="M1355 616.5H2059V1380H3020.5" stroke="#A156EC" stroke-width="5"/>
<defs>
<filter id="filter0_d" x="441" y="0.5" width="391.5" height="1738" filterUnits="userSpaceOnUse" color-interpolation-filters="sRGB">
<feFlood flood-opacity="0" result="BackgroundImageFix"/>
<feColorMatrix in="SourceAlpha" type="matrix" values="0 0 0 0 0 0 0 0 0 0 0 0 0 0 0 0 0 0 127 0"/>
<feOffset dx="16" dy="4"/>
<feGaussianBlur stdDeviation="51.5"/>
<feColorMatrix type="matrix" values="0 0 0 0 0 0 0 0 0 0 0 0 0 0 0 0 0 0 0.25 0"/>
<feBlend mode="normal" in2="BackgroundImageFix" result="effect1_dropShadow"/>
<feBlend mode="normal" in="SourceGraphic" in2="effect1_dropShadow" result="shape"/>
</filter>
<filter id="filter1_d" x="1042" y="247" width="323" height="1497" filterUnits="userSpaceOnUse" color-interpolation-filters="sRGB">
<feFlood flood-opacity="0" result="BackgroundImageFix"/>
<feColorMatrix in="SourceAlpha" type="matrix" values="0 0 0 0 0 0 0 0 0 0 0 0 0 0 0 0 0 0 127 0"/>
<feOffset dx="-24" dy="4"/>
<feGaussianBlur stdDeviation="18"/>
<feColorMatrix type="matrix" values="0 0 0 0 0 0 0 0 0 0 0 0 0 0 0 0 0 0 0.25 0"/>
<feBlend mode="normal" in2="BackgroundImageFix" result="effect1_dropShadow"/>
<feBlend mode="normal" in="SourceGraphic" in2="effect1_dropShadow" result="shape"/>
</filter>
<linearGradient id="paint0_linear" x1="-137.696" y1="1952.5" x2="1535.21" y2="2278.9" gradientUnits="userSpaceOnUse">
<stop stop-color="#3935ED"/>
<stop offset="0.619792" stop-color="#10BCE2"/>
</linearGradient>
<linearGradient id="paint1_linear" x1="-120.175" y1="2042.22" x2="1699.45" y2="1676.9" gradientUnits="userSpaceOnUse">
<stop offset="0.00520833" stop-color="#F0E9FE"/>
<stop offset="0.994436" stop-color="#584BF5"/>
</linearGradient>
<linearGradient id="paint2_linear" x1="-148.484" y1="1901.12" x2="1524.42" y2="2227.51" gradientUnits="userSpaceOnUse">
<stop stop-color="#3935ED"/>
<stop offset="0.619792" stop-color="#10BCE2"/>
</linearGradient>
<linearGradient id="paint3_linear" x1="-130.963" y1="1990.84" x2="1688.66" y2="1625.51" gradientUnits="userSpaceOnUse">
<stop offset="0.00520833" stop-color="#F0E9FE"/>
<stop offset="0.994436" stop-color="#584BF5"/>
</linearGradient>
</defs>
</svg>
