<svg width="228" height="180" viewBox="0 0 228 180" fill="none" xmlns="http://www.w3.org/2000/svg">
<path d="M11.9105 128V94.3097H21.4206C24.3515 94.3097 26.9431 94.9576 29.1952 96.2534C31.4474 97.5492 33.1829 99.3926 34.4015 101.784C35.6356 104.175 36.2603 106.92 36.2758 110.021V112.173C36.2758 115.351 35.6587 118.135 34.4246 120.526C33.206 122.917 31.4551 124.753 29.1721 126.033C26.9045 127.314 24.2589 127.969 21.2355 128H11.9105ZM16.3531 97.9657V124.367H21.0272C24.4518 124.367 27.1127 123.303 29.0101 121.174C30.923 119.045 31.8794 116.014 31.8794 112.08V110.114C31.8794 106.288 30.9769 103.318 29.1721 101.205C27.3827 99.0764 24.8374 97.9965 21.5363 97.9657H16.3531ZM64.5052 122.1L69.3181 102.964H73.5988L66.3101 128H62.8392L56.7537 109.026L50.8301 128H47.3593L40.0937 102.964H44.3512L49.2798 121.706L55.1108 102.964H58.5585L64.5052 122.1ZM93.4289 128C93.1821 127.506 92.9815 126.627 92.8273 125.362C90.8373 127.429 88.4617 128.463 85.7005 128.463C83.2323 128.463 81.2038 127.769 79.6149 126.38C78.0415 124.977 77.2548 123.203 77.2548 121.058C77.2548 118.451 78.242 116.431 80.2166 114.996C82.2065 113.546 84.9986 112.821 88.5928 112.821H92.7579V110.854C92.7579 109.358 92.3105 108.17 91.4158 107.291C90.5211 106.396 89.2022 105.949 87.459 105.949C85.9319 105.949 84.6515 106.334 83.618 107.106C82.5844 107.877 82.0677 108.81 82.0677 109.905H77.7638C77.7638 108.656 78.2035 107.453 79.0828 106.296C79.9775 105.123 81.1807 104.198 82.6924 103.519C84.2196 102.84 85.8933 102.501 87.7136 102.501C90.5982 102.501 92.8581 103.226 94.4933 104.676C96.1284 106.111 96.9768 108.093 97.0386 110.623V122.146C97.0386 124.444 97.3316 126.272 97.9178 127.63V128H93.4289ZM86.3252 124.737C87.6673 124.737 88.9399 124.39 90.1432 123.696C91.3464 123.002 92.2179 122.1 92.7579 120.989V115.852H89.4027C84.1579 115.852 81.5355 117.387 81.5355 120.457C81.5355 121.799 81.9828 122.848 82.8775 123.604C83.7722 124.359 84.9215 124.737 86.3252 124.737ZM115.85 106.805C115.203 106.697 114.501 106.643 113.745 106.643C110.937 106.643 109.032 107.838 108.03 110.229V128H103.749V102.964H107.914L107.983 105.856C109.387 103.619 111.377 102.501 113.953 102.501C114.786 102.501 115.419 102.609 115.85 102.825V106.805Z" fill="#2F9FEA"/>
<path d="M130.401 54.3192C128.639 54.3192 127.205 55.3402 127.205 56.5957C127.205 57.8513 128.639 58.8723 130.401 58.8723C132.163 58.8723 133.597 57.8513 133.597 56.5957C133.597 55.3402 132.163 54.3192 130.401 54.3192V54.3192Z" fill="#00003D"/>
<path d="M151.176 81.6383V28.1383C151.176 27.5097 150.461 27 149.578 27H106.43V27.0291C106.081 27.0295 105.736 27.082 105.455 27.2368C105.061 27.4524 104.832 27.7854 104.832 28.1383V81.6383H93.6453V83.9149H106.43C106.566 83.9149 106.703 83.9027 106.837 83.8777L137.201 78.1862C137.901 78.0545 138.391 77.602 138.391 77.0851V33.8298C138.391 33.3129 137.901 32.8605 137.201 32.7287L118.784 29.2766H147.98V82.7766C147.98 83.4053 148.695 83.9149 149.578 83.9149H159.167V81.6383H151.176ZM135.195 34.7074V76.2075L108.028 81.2998V29.6151L135.195 34.7074Z" fill="#00003D"/>
<path d="M108.749 55.2316V29.7316L121.492 32.0881L134.235 34.4446L134.598 44.6939C134.946 54.5222 134.86 54.9135 132.511 54.2197C127.926 52.8657 124.868 56.5814 129.007 58.477C130.573 59.1941 131.37 59.1904 132.968 58.4585C134.75 57.6424 134.929 58.5536 134.602 66.7806L134.235 76.019L121.492 78.3753L108.749 80.7316V55.2316Z" fill="#2F9FEA"/>
<path d="M89.4435 55.7389L84.1325 57.1813C84.1325 57.1813 83.2797 57.2761 81.4577 58.3914C78.592 60.1487 72.2446 63.3157 72.2446 63.3157C69.6828 65.9345 72.2302 66.8601 72.2302 66.8601L82.1951 61.6268C82.1951 61.6268 85.9613 58.8013 87.433 58.3723C91.0152 57.3129 90.3066 55.5535 90.3066 55.5535L89.4435 55.7389Z" fill="#FBBF96"/>
<path d="M86.6839 56.4834L90.1434 55.4859C90.1434 55.4859 89.9938 56.0262 89.5065 56.3029C88.9638 56.6066 87.0532 56.8719 86.6839 56.4834V56.4834Z" fill="#FDD6B2"/>
<path d="M83.884 57.9454C83.8052 57.9881 83.6962 57.9885 83.6543 57.9541L83.2886 57.5945C83.2583 57.5522 83.2926 57.4872 83.3714 57.4445C83.4502 57.4017 83.5592 57.4013 83.601 57.4358L83.9668 57.7953C84.0176 57.8343 83.9717 57.9071 83.884 57.9454Z" fill="#FDD6B2"/>
<path d="M83.1142 58.0679C83.0265 58.1062 82.9264 58.111 82.8845 58.0765L82.678 57.8918C82.6361 57.8574 82.682 57.7845 82.7608 57.7418C82.8485 57.7035 82.9486 57.6986 82.9905 57.7331L83.197 57.9178C83.2389 57.9523 83.193 58.0251 83.1142 58.0679Z" fill="#FDD6B2"/>
<path d="M82.1447 48.3713L87.9841 69.6709L105.347 64.0404L99.5073 42.7409L82.1447 48.3713Z" fill="#B9EFBD"/>
<path d="M88.6755 69.0576L83.0341 48.4799L98.8148 43.3666L104.456 63.9444L88.6755 69.0576ZM103.993 63.8913L98.4489 43.6764L83.4888 48.5285L89.0324 68.7434L103.993 63.8913Z" fill="#71AD71"/>
<path d="M94.7517 59.841C98.5284 58.6189 101.152 55.9898 100.607 53.984C100.053 51.9736 96.5386 51.3455 92.7618 52.5676C88.9735 53.7975 86.3617 56.4187 86.9066 58.4246C87.4399 60.4383 90.9634 61.0709 94.7517 59.841Z" fill="#71AD71"/>
<path d="M87.6538 71.6091C86.1589 72.0539 81.3286 72.8475 81.1818 72.0368C81.035 71.2262 82.131 70.2142 83.6171 69.765L95.0893 66.306C96.5843 65.8612 97.8253 65.8912 97.9721 66.7019C98.119 67.5125 97.3241 68.0597 95.5065 68.7537L87.6538 71.6091Z" fill="#FBBF96"/>
<path d="M86.5292 60.2585L83.3266 60.9465L81.2401 59.4169L68.1854 65.0529L66.3773 75.6961C66.3773 75.6961 72.2051 75.4942 76.7425 74.6369C81.2799 73.7796 90.226 70.7714 90.226 70.7714L90.8254 67.9824L91.1334 63.8738L86.5292 60.2585Z" fill="#FBBF96"/>
<path d="M87.3379 62.8601C86.0033 63.207 81.8433 64.416 81.8008 63.6709L79.0541 62.9739C79.0116 62.2288 88.364 59.7097 89.1208 59.5124L106.006 54.9078C107.94 54.4078 109.056 54.731 109.108 55.4806C109.15 56.2257 108.025 57.278 106.691 57.625L87.3379 62.8601Z" fill="#FBBF96"/>
<path d="M105.938 57.2233L107.138 56.9048C107.989 56.6859 108.656 56.0889 108.62 55.5795C108.585 55.0702 107.874 54.8393 107.032 55.0626L105.844 55.3732C105.844 55.3732 105.561 55.7106 105.613 56.3239C105.674 57.0779 105.794 57.0696 105.938 57.2233Z" fill="#FDD6B2"/>
<path d="M96.9442 59.6885C96.8503 59.7101 96.7646 59.6948 96.7576 59.6367L96.6511 57.9308C96.6531 57.8772 96.7168 57.8133 96.8224 57.7838C96.9163 57.7622 97.002 57.7776 97.0089 57.8356L97.1155 59.5415C97.1224 59.5996 97.0381 59.6669 96.9442 59.6885Z" fill="#FDD6B2"/>
<path d="M96.0499 59.4759C95.9649 59.5019 95.8909 59.4788 95.8929 59.4251L95.8427 58.5806C95.8331 58.5348 95.9057 58.4753 95.9907 58.4493C96.0846 58.4277 96.1497 58.4464 96.1477 58.5001L96.1979 59.3446C96.2075 59.3904 96.1349 59.4499 96.0499 59.4759Z" fill="#FDD6B2"/>
<path d="M90.2231 70.7837L105.093 65.9823C106.057 65.6557 107.007 64.899 106.89 64.267C106.772 63.635 105.658 63.4359 104.406 63.8104L87.1608 69.0555C85.9091 69.43 84.9864 70.2414 85.1035 70.8734C85.2207 71.5054 86.5642 71.8322 87.8198 71.3503L90.2231 70.7837Z" fill="#FBBF96"/>
<path d="M88.6111 68.5886L96.9564 66.1012C97.903 65.8071 106.084 63.3471 105.363 63.5622L97.7678 65.6579L86.0742 69.2663C86.3361 69.2463 88.3267 68.6656 88.6111 68.5886V68.5886Z" fill="#EDAC80"/>
<path d="M104.208 65.9109L105.248 65.5952C105.981 65.3723 106.514 64.8451 106.43 64.4208C106.346 63.9966 105.692 63.8214 104.959 64.0442L103.93 64.352C103.93 64.352 103.726 64.6467 103.82 65.1581C103.944 65.8068 104.047 65.7897 104.208 65.9109V65.9109Z" fill="#FDD6B2"/>
<path d="M96.8823 68.2637C96.7973 68.2897 96.7321 68.2709 96.7225 68.2252L96.488 66.7835C96.4783 66.7377 96.551 66.6782 96.6243 66.6601C96.7093 66.6341 96.7834 66.6573 96.7841 66.6986L97.0186 68.1402C97.0193 68.1816 96.9673 68.2377 96.8823 68.2637Z" fill="#FDD6B2"/>
<path d="M96.0663 68.1034C95.993 68.1216 95.9251 68.1151 95.9155 68.0694L95.8058 67.3591C95.805 67.3178 95.8454 67.2696 95.9304 67.2436C96.0038 67.2254 96.0717 67.2318 96.0813 67.2776L96.1999 67.9923C96.2007 68.0336 96.1397 68.0853 96.0663 68.1034Z" fill="#FDD6B2"/>
<path d="M88.3156 65.6823C86.746 66.2401 85.1529 65.7891 85.0623 64.9928C84.96 64.2043 86.1507 63.212 87.7019 62.7816L109.033 56.7547C110.584 56.3242 111.906 56.6131 111.997 57.4095C112.09 58.1935 110.874 59.1188 109.682 59.4954L88.2217 65.7038" fill="#FBBF96"/>
<path d="M86.8886 63.1009L99.708 59.5061C100.881 59.1743 107.968 57.0447 107.968 57.0447L86.8425 62.996L86.8886 63.1009Z" fill="#EDAC80"/>
<path d="M108.607 59.3843L109.886 59.023C110.794 58.7648 111.482 58.1231 111.422 57.5881C111.363 57.0531 110.572 56.8237 109.666 57.0695L108.387 57.4308C108.387 57.4308 108.108 57.7972 108.193 58.4405C108.292 59.2413 108.425 59.2252 108.607 59.3843V59.3843Z" fill="#FDD6B2"/>
<path d="M99.5294 62.0946C99.4238 62.124 99.3408 62.0964 99.3339 62.0383L99.1724 60.2232C99.1655 60.1651 99.2498 60.0977 99.3553 60.0683C99.4609 60.0388 99.5439 60.0665 99.5508 60.1245L99.7123 61.9397C99.7192 61.9977 99.6438 62.0695 99.5294 62.0946Z" fill="#FDD6B2"/>
<path d="M98.5674 61.8757C98.4735 61.8972 98.3994 61.8741 98.3898 61.8283L98.3122 60.9291C98.3142 60.8754 98.3868 60.8159 98.4718 60.7899C98.5657 60.7683 98.6398 60.7915 98.6494 60.8373L98.7271 61.7365C98.725 61.7901 98.6524 61.8496 98.5674 61.8757Z" fill="#FDD6B2"/>
<path d="M88.3915 68.329C86.9008 68.8442 85.396 68.3962 85.3267 67.6377C85.2574 66.8793 86.3961 65.9431 87.8801 65.5476L108.217 59.9825C109.692 59.5825 110.944 59.8772 111.013 60.6357C111.082 61.3941 109.919 62.2633 108.761 62.6163L88.3065 68.3551" fill="#FBBF96"/>
<path d="M89.4846 65.1437L99.2689 62.5526C100.389 62.2355 107.947 60.0393 107.102 60.2749L86.5034 65.86C86.8064 65.8332 89.1501 65.2232 89.4846 65.1437Z" fill="#EDAC80"/>
<path d="M107.757 62.4995L108.98 62.1652C109.854 61.9307 110.504 61.3248 110.471 60.8031C110.427 60.2893 109.686 60.0574 108.821 60.2965L107.598 60.6307C107.598 60.6307 107.324 60.9725 107.385 61.5902C107.472 62.3575 107.593 62.3492 107.757 62.4995V62.4995Z" fill="#FDD6B2"/>
<path d="M99.1003 65.0093C98.9948 65.0387 98.9118 65.0111 98.9138 64.9574L98.8154 63.2147C98.8085 63.1566 98.8928 63.0893 98.9867 63.0677C99.0923 63.0382 99.1752 63.0658 99.1732 63.1195L99.2716 64.8622C99.2785 64.9203 99.2059 64.9798 99.1003 65.0093Z" fill="#FDD6B2"/>
<path d="M98.1891 64.7881C98.1041 64.8141 98.03 64.7909 98.032 64.7373L97.9757 63.876C97.966 63.8302 98.0387 63.7707 98.1237 63.7447C98.2176 63.7231 98.2827 63.7419 98.2924 63.7877L98.3487 64.649C98.3556 64.707 98.283 64.7665 98.1891 64.7881Z" fill="#FDD6B2"/>
<path d="M71.4654 75.1674L56.2771 78.7722C54.8657 79.1083 53.7391 78.384 53.7531 77.1615L53.8657 69.4724C53.8796 68.2499 55.0419 66.984 56.4533 66.648L71.6416 63.0431C73.0503 62.7194 72.8768 74.8314 71.4654 75.1674V75.1674Z" fill="#EBF3F6"/>
<path d="M72.2448 63.3158L51.3295 67.8282C50.2494 72.6046 51.8134 76.9342 56.1839 79.9961L72.056 76.5675C73.5935 76.1986 73.7824 62.9468 72.2448 63.3158V63.3158Z" fill="#444545"/>
<path d="M129.082 118.165V129H122.746V98.2474H134.743C137.052 98.2474 139.08 98.6699 140.826 99.5147C142.586 100.36 143.937 101.563 144.881 103.126C145.824 104.675 146.296 106.442 146.296 108.428C146.296 111.441 145.261 113.821 143.191 115.567C141.135 117.299 138.284 118.165 134.637 118.165H129.082ZM129.082 113.032H134.743C136.418 113.032 137.693 112.638 138.566 111.85C139.453 111.061 139.896 109.935 139.896 108.47C139.896 106.963 139.453 105.745 138.566 104.816C137.679 103.887 136.453 103.408 134.89 103.38H129.082V113.032ZM164.27 122.664H153.16L151.048 129H144.311L155.758 98.2474H161.63L173.141 129H166.403L164.27 122.664ZM154.871 117.531H162.559L158.694 106.02L154.871 117.531ZM183.448 112.103L189.848 98.2474H196.776L186.68 117.848V129H180.238V117.848L170.142 98.2474H177.091L183.448 112.103Z" fill="#00003D"/>
</svg>
