<svg width="147" height="188" viewBox="0 0 147 188" fill="none" xmlns="http://www.w3.org/2000/svg">
<g filter="url(#filter0_i)">
<path d="M25 49.0694C92.1141 29.898 93.8802 150.761 25 130.756V49.0694Z" fill="url(#paint0_linear)"/>
</g>
<path d="M25 49.0694C92.1141 29.898 93.8802 150.761 25 130.756V49.0694Z" stroke="white"/>
<g filter="url(#filter1_d)">
<path d="M26.7133 51.776V128.688H39.3293C51.2866 128.688 59.3933 125.597 63.6493 119.416C67.9053 113.235 70.0333 103.507 70.0333 90.232C70.0333 76.9573 67.9053 67.2293 63.6493 61.048C59.3933 54.8667 51.2866 51.776 39.3293 51.776H26.7133ZM38.2653 141H12.1213V39.464H38.2653C51.2359 39.464 60.2546 40.832 65.3213 43.568C78.292 50.1547 84.7773 65.76 84.7773 90.384C84.7773 114.907 78.292 130.461 65.3213 137.048C60.356 139.683 51.3373 141 38.2653 141Z" fill="#FFFDFD"/>
<path d="M26.7133 51.776V51.276H26.2133V51.776H26.7133ZM26.7133 128.688H26.2133V129.188H26.7133V128.688ZM63.6493 61.048L63.2375 61.3315L63.6493 61.048ZM12.1213 141H11.6213V141.5H12.1213V141ZM12.1213 39.464V38.964H11.6213V39.464H12.1213ZM65.3213 43.568L65.0836 44.0081L65.0949 44.0138L65.3213 43.568ZM65.3213 137.048L65.0949 136.602L65.0869 136.606L65.3213 137.048ZM26.2133 51.776V128.688H27.2133V51.776H26.2133ZM26.7133 129.188H39.3293V128.188H26.7133V129.188ZM39.3293 129.188C51.351 129.188 59.6666 126.082 64.0611 119.7L63.2375 119.132C59.1199 125.113 51.2223 128.188 39.3293 128.188V129.188ZM64.0611 119.7C68.4039 113.392 70.5333 103.54 70.5333 90.232H69.5333C69.5333 103.474 67.4067 113.077 63.2375 119.132L64.0611 119.7ZM70.5333 90.232C70.5333 76.9244 68.4039 67.0718 64.0611 60.7644L63.2375 61.3315C67.4067 67.3869 69.5333 76.9902 69.5333 90.232H70.5333ZM64.0611 60.7644C59.6666 54.382 51.351 51.276 39.3293 51.276V52.276C51.2223 52.276 59.1199 55.3513 63.2375 61.3315L64.0611 60.7644ZM39.3293 51.276H26.7133V52.276H39.3293V51.276ZM38.2653 140.5H12.1213V141.5H38.2653V140.5ZM12.6213 141V39.464H11.6213V141H12.6213ZM12.1213 39.964H38.2653V38.964H12.1213V39.964ZM38.2653 39.964C51.2324 39.964 60.1374 41.3369 65.0837 44.0079L65.5589 43.128C60.3719 40.3271 51.2395 38.964 38.2653 38.964V39.964ZM65.0949 44.0138C77.8028 50.4671 84.2773 65.8107 84.2773 90.384H85.2773C85.2773 65.7093 78.7811 49.8423 65.5477 43.1222L65.0949 44.0138ZM84.2773 90.384C84.2773 114.855 77.8034 130.149 65.0949 136.602L65.5477 137.494C78.7805 130.774 85.2773 114.958 85.2773 90.384H84.2773ZM65.0869 136.606C60.2418 139.177 51.3369 140.5 38.2653 140.5V141.5C51.3377 141.5 60.4701 140.188 65.5556 137.49L65.0869 136.606Z" fill="black"/>
</g>
<rect x="32" y="76.4046" width="108" height="46" transform="rotate(-9.81183 32 76.4046)" fill="#5BB8CD"/>
<path fill-rule="evenodd" clip-rule="evenodd" d="M129.341 78.8522C130.205 78.7029 131.008 78.4113 131.732 78.0057L133.581 88.7005C132.764 88.5614 131.909 88.5566 131.045 88.706C126.964 89.4119 124.227 93.2928 124.933 97.3744C125.082 98.2381 125.374 99.0417 125.779 99.7651L57.933 111.499C58.0721 110.681 58.0769 109.826 57.9275 108.962C57.2217 104.881 53.3407 102.144 49.2591 102.85C48.3954 103 47.5918 103.291 46.8684 103.697L45.1893 93.9874C46.0069 94.1265 46.8617 94.1313 47.7254 93.9819C51.807 93.276 54.5435 89.395 53.8376 85.3135C53.6882 84.4497 53.3967 83.6462 52.9911 82.9228L120.565 71.2364C120.55 71.7308 120.585 72.2339 120.673 72.7401C121.378 76.8216 125.259 79.5581 129.341 78.8522Z" fill="#34D2F4"/>
<path d="M81.6142 88.8518C82.0641 91.4532 81.1543 93.2342 78.8848 94.195C78.1265 94.5048 77.0773 94.7756 75.7372 95.0073L74.8858 95.1546L75.9451 101.28L73.6748 101.672L70.9428 85.8748L74.6793 85.2286C75.8933 85.0186 76.8727 84.9548 77.6176 85.037C78.3598 85.1035 79.0412 85.3348 79.6618 85.7308C80.7152 86.3768 81.366 87.4171 81.6142 88.8518ZM78.7368 91.9311C79.3303 91.3252 79.5356 90.494 79.3529 89.4377C79.1703 88.3814 78.7673 87.6473 78.144 87.2355C77.4967 86.7791 76.3769 86.6886 74.7846 86.964L73.5075 87.1849L74.5586 93.2626L75.4573 93.1072C77.1915 92.8073 78.2847 92.4153 78.7368 91.9311ZM88.2852 99.4621C87.2604 99.6394 86.3888 99.4816 85.6703 98.9888C84.9676 98.4933 84.529 97.7411 84.3545 96.7321C84.2399 96.0699 84.285 95.4857 84.4898 94.9794C84.6945 94.4731 85.0064 94.07 85.4254 93.7702C86.1771 93.2343 87.0022 92.8886 87.9009 92.7332C88.7995 92.5778 89.642 92.4727 90.4281 92.4179L90.1091 90.5733C89.951 89.6589 89.6856 89.0634 89.313 88.7868C88.9535 88.4918 88.3402 88.4192 87.473 88.5692C86.6059 88.7192 85.61 89.1106 84.4854 89.7435L83.7311 88.3395C84.1393 87.9767 84.6989 87.6444 85.4099 87.3429C86.1366 87.0386 86.7759 86.8387 87.3277 86.7433C88.857 86.4788 89.9943 86.6231 90.7394 87.1762C91.4846 87.7293 91.9921 88.7863 92.2621 90.3471L93.2559 96.0938C93.3513 96.6456 93.5882 96.8888 93.9666 96.8234C94.2189 96.7797 94.5535 96.6488 94.9704 96.4306L95.5541 97.6936C95.0781 98.1331 94.4144 98.4265 93.563 98.5737C92.7116 98.721 92.0272 98.4253 91.5098 97.6867C91.2202 98.0777 90.7805 98.446 90.1908 98.7916C89.6141 99.1187 88.9789 99.3422 88.2852 99.4621ZM88.4441 97.7054C89.4374 97.5336 90.3264 97.0876 91.1111 96.3673L90.6367 93.624C90.2474 93.6264 89.6271 93.7012 88.7757 93.8484C86.9311 94.1674 86.1073 94.9432 86.3042 96.1757C86.5168 97.4054 87.2302 97.9153 88.4441 97.7054ZM97.1299 101.099C97.997 100.949 98.6563 100.583 99.1078 100.002C99.5751 99.4175 99.906 98.4673 100.101 97.1508L93.6723 86.0357L95.8944 85.5053L100.673 94.6892L101.783 84.4869L104.006 84.1024L102.109 96.5112C101.816 98.478 101.329 99.9342 100.648 100.88C99.9858 101.839 99.0082 102.43 97.7154 102.654C97.1951 102.744 96.6496 102.781 96.0787 102.766L96.077 101.208C96.3375 101.212 96.6884 101.175 97.1299 101.099Z" fill="#12004D"/>
<g filter="url(#filter2_d)">
<path d="M25 52.9009C75.0065 35.29 76.3225 146.316 25 127.939V52.9009Z" fill="#287F92"/>
<path d="M62.7861 86.2219H25V93.8788H62.9473C63 92.3474 63.0752 88.519 62.7861 86.2219Z" fill="url(#paint1_radial)"/>
<path d="M28.8 92.3474C32.1387 90.6983 32.3371 89.701 28.8 87.7533C40.9558 89.6553 47.5995 89.5713 59.2 87.7533C55.4467 89.8641 55.8428 90.8366 59.2 92.3474C47.3337 90.5402 40.6767 90.54 28.8 92.3474Z" fill="#34D2F4"/>
<g filter="url(#filter3_d)">
<path d="M28.8 83.1591V57.7973C43.5713 56.2027 50.4999 56.8127 55.4 66.7485V83.1591H28.8Z" fill="#5BB8CD"/>
<path d="M28.8 83.1591V57.7973C43.5713 56.2027 50.4999 56.8127 55.4 66.7485V83.1591H28.8Z" stroke="url(#paint2_radial)"/>
</g>
<g filter="url(#filter4_d)">
<path d="M32.6 80.0964V62.1939C43.151 61.0683 48.0999 61.4989 51.6 68.5124V80.0964H32.6Z" fill="#34D2F4"/>
<path d="M32.6 80.0964V62.1939C43.151 61.0683 48.0999 61.4989 51.6 68.5124V80.0964H32.6Z" stroke="url(#paint3_radial)"/>
</g>
<path d="M28.8 96.9418L28.8 123.504C40.406 125.098 52.4999 124.488 56.35 114.553V96.9418H28.8Z" fill="#5BB8CD" stroke="url(#paint4_radial)"/>
<g filter="url(#filter5_d)">
<path d="M32.6 100.004V117.907C43.151 119.032 48.0999 118.602 51.6 111.588V100.004H32.6Z" fill="#34D2F4"/>
<path d="M32.6 100.004V117.907C43.151 119.032 48.0999 118.602 51.6 111.588V100.004H32.6Z" stroke="url(#paint5_radial)"/>
</g>
<g filter="url(#filter6_d)">
<ellipse cx="58.8695" cy="90.228" rx="2.47826" ry="2.13971" fill="#08A9CC"/>
</g>
</g>
<g filter="url(#filter7_d)">
<path d="M9.46227 174.38C10.2063 170.804 10.5783 167.096 10.5783 163.256C10.5783 159.416 10.2783 155.528 9.67827 151.592C12.9423 150.68 15.8343 150.224 18.3543 150.224C22.0983 150.224 24.9423 151.208 26.8863 153.176C28.8543 155.12 29.8383 158.084 29.8383 162.068C29.8383 166.052 28.7223 169.412 26.4903 172.148C24.2823 174.86 21.2103 176.216 17.2743 176.216C14.5863 176.216 11.9823 175.604 9.46227 174.38ZM15.0423 153.86C14.8263 156.788 14.7183 159.632 14.7183 162.392C14.7183 165.128 14.8503 168.44 15.1143 172.328C16.0983 172.664 17.2023 172.832 18.4263 172.832C19.6503 172.832 20.7063 172.556 21.5943 172.004C22.5063 171.428 23.2023 170.648 23.6823 169.664C24.6183 167.792 25.0863 165.5 25.0863 162.788C25.0863 160.172 24.5823 158.012 23.5743 156.308C22.4703 154.388 20.7543 153.428 18.4263 153.428C17.1543 153.428 16.0263 153.572 15.0423 153.86ZM29.1273 159.8C29.8713 158.456 30.9273 157.784 32.2953 157.784C33.1833 157.784 33.9033 158.264 34.4553 159.224C35.0073 160.16 35.3913 161.324 35.6073 162.716C35.8473 164.084 36.0393 165.476 36.1833 166.892C36.5433 170.42 36.9873 172.352 37.5153 172.688C38.4513 172.448 39.2793 171.02 39.9993 168.404C40.7193 165.764 41.0793 163.784 41.0793 162.464C41.0793 161.12 41.0073 160.052 40.8633 159.26C41.7033 159.092 42.4233 159.008 43.0233 159.008C45.0873 159.008 46.1193 159.992 46.1193 161.96C46.1193 165.032 46.2753 167.54 46.5873 169.484C46.9233 171.404 47.3193 172.544 47.7753 172.904C48.4473 172.856 49.0233 172.328 49.5033 171.32C49.9833 170.312 50.3313 169.088 50.5473 167.648C50.9553 164.936 51.1593 162.86 51.1593 161.42C51.1593 159.956 51.0873 158.828 50.9433 158.036C51.7833 157.868 52.5033 157.784 53.1033 157.784C55.1673 157.784 56.1993 158.768 56.1993 160.736C56.1993 161.984 55.9473 163.496 55.4433 165.272C54.9393 167.024 54.2793 168.74 53.4633 170.42C52.6473 172.076 51.6513 173.492 50.4753 174.668C49.3233 175.844 48.1713 176.432 47.0193 176.432C45.6993 176.432 44.7033 175.448 44.0313 173.48C43.5033 171.992 43.0713 170.06 42.7353 167.684C42.5193 168.476 42.3633 169.052 42.2673 169.412C42.1713 169.772 42.0033 170.312 41.7633 171.032C41.5233 171.752 41.3073 172.304 41.1153 172.688C40.9233 173.072 40.6593 173.528 40.3233 174.056C40.0113 174.584 39.6873 174.968 39.3513 175.208C38.5113 175.88 37.5753 176.216 36.5433 176.216C35.5353 176.216 34.6953 175.76 34.0233 174.848C33.3753 173.936 32.9193 172.772 32.6553 171.356C32.4153 169.94 32.1993 168.488 32.0073 167C31.5513 163.208 30.5913 160.808 29.1273 159.8ZM72.7399 159.044C72.0919 161.804 71.7679 164.576 71.7679 167.36C71.7679 170.12 72.0799 172.856 72.7039 175.568C71.8399 175.856 70.9519 176 70.0399 176C69.1279 176 68.4919 175.736 68.1319 175.208C67.7719 174.656 67.5919 173.876 67.5919 172.868C67.5919 171.836 67.7479 170.432 68.0599 168.656C66.3559 172.304 64.7119 174.608 63.1279 175.568C62.4079 176 61.6639 176.216 60.8959 176.216C59.0719 176.216 57.6559 175.544 56.6479 174.2C55.6399 172.832 55.1359 171.14 55.1359 169.124C55.1359 166.052 55.9879 163.364 57.6919 161.06C59.3959 158.732 61.6039 157.568 64.3159 157.568C67.0519 157.568 69.8599 158.06 72.7399 159.044ZM68.0239 161.204C66.7519 160.82 65.6719 160.628 64.7839 160.628C62.9839 160.628 61.6399 161.024 60.7519 161.816C59.9359 163.832 59.5279 165.884 59.5279 167.972C59.5279 169.076 59.6959 170.192 60.0319 171.32C60.3919 172.448 60.9319 173.012 61.6519 173.012C62.4919 173.012 63.5719 171.776 64.8919 169.304C66.2119 166.832 67.2559 164.132 68.0239 161.204ZM79.037 175.568C78.293 175.856 77.501 176 76.661 176C75.821 176 75.137 175.808 74.609 175.424C74.105 175.016 73.853 174.464 73.853 173.768C73.853 173.048 73.961 171.752 74.177 169.88C74.393 168.008 74.501 166.196 74.501 164.444C74.501 162.668 74.225 160.592 73.673 158.216C74.441 157.928 75.197 157.784 75.941 157.784C76.685 157.784 77.321 158.036 77.849 158.54C78.401 159.044 78.677 159.716 78.677 160.556C78.677 160.988 78.605 161.636 78.461 162.5C78.317 163.34 78.233 163.976 78.209 164.408C79.145 162.272 80.249 160.604 81.521 159.404C82.817 158.18 84.101 157.568 85.373 157.568C86.261 157.568 86.969 157.88 87.497 158.504C88.025 159.128 88.289 159.92 88.289 160.88C88.289 161.816 88.049 162.584 87.569 163.184C87.089 163.76 86.489 164.048 85.769 164.048C85.073 164.048 84.509 163.976 84.077 163.832C84.149 163.544 84.185 163.28 84.185 163.04C84.185 162.056 83.837 161.564 83.141 161.564C82.085 161.564 81.089 162.632 80.153 164.768C79.241 166.88 78.629 168.86 78.317 170.708C78.437 172.508 78.677 174.128 79.037 175.568Z" fill="#5BB8CD"/>
<path d="M92.5119 165.98V176H89.1369V150.406H98.5763C101.377 150.406 103.569 151.121 105.151 152.551C106.744 153.98 107.541 155.873 107.541 158.229C107.541 160.713 106.762 162.629 105.203 163.977C103.656 165.312 101.436 165.98 98.5412 165.98H92.5119ZM92.5119 163.221H98.5763C100.381 163.221 101.764 162.799 102.725 161.955C103.686 161.1 104.166 159.869 104.166 158.264C104.166 156.74 103.686 155.521 102.725 154.607C101.764 153.693 100.445 153.219 98.7697 153.184H92.5119V163.221ZM120.709 176C120.522 175.625 120.369 174.957 120.252 173.996C118.741 175.566 116.936 176.352 114.838 176.352C112.963 176.352 111.422 175.824 110.215 174.77C109.02 173.703 108.422 172.355 108.422 170.727C108.422 168.746 109.172 167.211 110.672 166.121C112.184 165.02 114.305 164.469 117.035 164.469H120.2V162.975C120.2 161.838 119.86 160.936 119.18 160.268C118.5 159.588 117.498 159.248 116.174 159.248C115.014 159.248 114.041 159.541 113.256 160.127C112.471 160.713 112.078 161.422 112.078 162.254H108.809C108.809 161.305 109.143 160.391 109.811 159.512C110.491 158.621 111.405 157.918 112.553 157.402C113.713 156.887 114.985 156.629 116.368 156.629C118.559 156.629 120.276 157.18 121.518 158.281C122.76 159.371 123.405 160.877 123.451 162.799V171.553C123.451 173.299 123.674 174.688 124.119 175.719V176H120.709ZM115.313 173.521C116.332 173.521 117.299 173.258 118.213 172.73C119.127 172.203 119.789 171.518 120.2 170.674V166.771H117.651C113.666 166.771 111.674 167.938 111.674 170.27C111.674 171.289 112.014 172.086 112.694 172.66C113.373 173.234 114.246 173.521 115.313 173.521ZM132.331 171.236L136.76 156.98H140.241L132.594 178.936C131.411 182.1 129.53 183.682 126.952 183.682L126.336 183.629L125.124 183.4V180.764L126.002 180.834C127.104 180.834 127.959 180.611 128.569 180.166C129.19 179.721 129.7 178.906 130.098 177.723L130.819 175.789L124.034 156.98H127.584L132.331 171.236Z" fill="#0F052F"/>
</g>
<defs>
<filter id="filter0_i" x="24.5" y="46.5002" width="52" height="90.9995" filterUnits="userSpaceOnUse" color-interpolation-filters="sRGB">
<feFlood flood-opacity="0" result="BackgroundImageFix"/>
<feBlend mode="normal" in="SourceGraphic" in2="BackgroundImageFix" result="shape"/>
<feColorMatrix in="SourceAlpha" type="matrix" values="0 0 0 0 0 0 0 0 0 0 0 0 0 0 0 0 0 0 127 0" result="hardAlpha"/>
<feOffset dy="4"/>
<feGaussianBlur stdDeviation="2"/>
<feComposite in2="hardAlpha" operator="arithmetic" k2="-1" k3="1"/>
<feColorMatrix type="matrix" values="0 0 0 0 0 0 0 0 0 0 0 0 0 0 0 0 0 0 0.25 0"/>
<feBlend mode="normal" in2="shape" result="effect1_innerShadow"/>
</filter>
<filter id="filter1_d" x="1.62128" y="28.964" width="97.656" height="126.536" filterUnits="userSpaceOnUse" color-interpolation-filters="sRGB">
<feFlood flood-opacity="0" result="BackgroundImageFix"/>
<feColorMatrix in="SourceAlpha" type="matrix" values="0 0 0 0 0 0 0 0 0 0 0 0 0 0 0 0 0 0 127 0"/>
<feOffset dx="2" dy="2"/>
<feGaussianBlur stdDeviation="6"/>
<feColorMatrix type="matrix" values="0 0 0 0 0 0 0 0 0 0 0 0 0 0 0 0 0 0 0.25 0"/>
<feBlend mode="normal" in2="BackgroundImageFix" result="effect1_dropShadow"/>
<feBlend mode="normal" in="SourceGraphic" in2="effect1_dropShadow" result="shape"/>
</filter>
<filter id="filter2_d" x="25" y="48" width="52" height="87" filterUnits="userSpaceOnUse" color-interpolation-filters="sRGB">
<feFlood flood-opacity="0" result="BackgroundImageFix"/>
<feColorMatrix in="SourceAlpha" type="matrix" values="0 0 0 0 0 0 0 0 0 0 0 0 0 0 0 0 0 0 127 0"/>
<feOffset dx="10" dy="1"/>
<feGaussianBlur stdDeviation="2"/>
<feColorMatrix type="matrix" values="0 0 0 0 0 0 0 0 0 0 0 0 0 0 0 0 0 0 0.25 0"/>
<feBlend mode="normal" in2="BackgroundImageFix" result="effect1_dropShadow"/>
<feBlend mode="normal" in="SourceGraphic" in2="effect1_dropShadow" result="shape"/>
</filter>
<filter id="filter3_d" x="27.3" y="56.6256" width="29.6" height="29.0335" filterUnits="userSpaceOnUse" color-interpolation-filters="sRGB">
<feFlood flood-opacity="0" result="BackgroundImageFix"/>
<feColorMatrix in="SourceAlpha" type="matrix" values="0 0 0 0 0 0 0 0 0 0 0 0 0 0 0 0 0 0 127 0"/>
<feOffset dy="1"/>
<feGaussianBlur stdDeviation="0.5"/>
<feColorMatrix type="matrix" values="0 0 0 0 0 0 0 0 0 0 0 0 0 0 0 0 0 0 0.19 0"/>
<feBlend mode="normal" in2="BackgroundImageFix" result="effect1_dropShadow"/>
<feBlend mode="normal" in="SourceGraphic" in2="effect1_dropShadow" result="shape"/>
</filter>
<filter id="filter4_d" x="31.1" y="61.2197" width="22" height="21.3766" filterUnits="userSpaceOnUse" color-interpolation-filters="sRGB">
<feFlood flood-opacity="0" result="BackgroundImageFix"/>
<feColorMatrix in="SourceAlpha" type="matrix" values="0 0 0 0 0 0 0 0 0 0 0 0 0 0 0 0 0 0 127 0"/>
<feOffset dy="1"/>
<feGaussianBlur stdDeviation="0.5"/>
<feColorMatrix type="matrix" values="0 0 0 0 0 0 0 0 0 0 0 0 0 0 0 0 0 0 0.19 0"/>
<feBlend mode="normal" in2="BackgroundImageFix" result="effect1_dropShadow"/>
<feBlend mode="normal" in="SourceGraphic" in2="effect1_dropShadow" result="shape"/>
</filter>
<filter id="filter5_d" x="31.1" y="99.5043" width="22" height="21.3766" filterUnits="userSpaceOnUse" color-interpolation-filters="sRGB">
<feFlood flood-opacity="0" result="BackgroundImageFix"/>
<feColorMatrix in="SourceAlpha" type="matrix" values="0 0 0 0 0 0 0 0 0 0 0 0 0 0 0 0 0 0 127 0"/>
<feOffset dy="1"/>
<feGaussianBlur stdDeviation="0.5"/>
<feColorMatrix type="matrix" values="0 0 0 0 0 0 0 0 0 0 0 0 0 0 0 0 0 0 0.19 0"/>
<feBlend mode="normal" in2="BackgroundImageFix" result="effect1_dropShadow"/>
<feBlend mode="normal" in="SourceGraphic" in2="effect1_dropShadow" result="shape"/>
</filter>
<filter id="filter6_d" x="55.3913" y="87.0883" width="6.95652" height="6.27942" filterUnits="userSpaceOnUse" color-interpolation-filters="sRGB">
<feFlood flood-opacity="0" result="BackgroundImageFix"/>
<feColorMatrix in="SourceAlpha" type="matrix" values="0 0 0 0 0 0 0 0 0 0 0 0 0 0 0 0 0 0 127 0"/>
<feOffset/>
<feGaussianBlur stdDeviation="0.5"/>
<feColorMatrix type="matrix" values="0 0 0 0 0 0 0 0 0 0 0 0 0 0 0 0 0 0 0.3 0"/>
<feBlend mode="normal" in2="BackgroundImageFix" result="effect1_dropShadow"/>
<feBlend mode="normal" in="SourceGraphic" in2="effect1_dropShadow" result="shape"/>
</filter>
<filter id="filter7_d" x="4.46228" y="146.224" width="138.778" height="41.4576" filterUnits="userSpaceOnUse" color-interpolation-filters="sRGB">
<feFlood flood-opacity="0" result="BackgroundImageFix"/>
<feColorMatrix in="SourceAlpha" type="matrix" values="0 0 0 0 0 0 0 0 0 0 0 0 0 0 0 0 0 0 127 0"/>
<feOffset dx="-1"/>
<feGaussianBlur stdDeviation="2"/>
<feColorMatrix type="matrix" values="0 0 0 0 0 0 0 0 0 0 0 0 0 0 0 0 0 0 0.25 0"/>
<feBlend mode="normal" in2="BackgroundImageFix" result="effect1_dropShadow"/>
<feBlend mode="normal" in="SourceGraphic" in2="effect1_dropShadow" result="shape"/>
</filter>
<linearGradient id="paint0_linear" x1="87.6987" y1="90.344" x2="0.273772" y2="90.344" gradientUnits="userSpaceOnUse">
<stop offset="0.182292" stop-color="white"/>
<stop offset="1" stop-color="white" stop-opacity="0"/>
</linearGradient>
<radialGradient id="paint1_radial" cx="0" cy="0" r="1" gradientUnits="userSpaceOnUse" gradientTransform="translate(44 90.0504) rotate(90) scale(3.82846 19)">
<stop stop-color="#34D2F4"/>
<stop stop-color="#487983" stop-opacity="0.291584"/>
<stop offset="0.423357" stop-color="#409EB3" stop-opacity="0.591497"/>
<stop offset="1" stop-color="#34D2F4"/>
</radialGradient>
<radialGradient id="paint2_radial" cx="0" cy="0" r="1" gradientUnits="userSpaceOnUse" gradientTransform="translate(42.1 70.1423) rotate(90) scale(13.0168 13.3)">
<stop stop-color="#34D2F4"/>
<stop offset="0.0001" stop-color="#34D2F4"/>
<stop offset="1" stop-color="#7E8283" stop-opacity="0"/>
</radialGradient>
<radialGradient id="paint3_radial" cx="0" cy="0" r="1" gradientUnits="userSpaceOnUse" gradientTransform="translate(42.1 70.908) rotate(90) scale(9.18832 9.5)">
<stop stop-color="#34D2F4"/>
<stop offset="0.0001" stop-color="#34D2F4"/>
<stop offset="1" stop-color="#7E8283" stop-opacity="0"/>
</radialGradient>
<radialGradient id="paint4_radial" cx="0" cy="0" r="1" gradientUnits="userSpaceOnUse" gradientTransform="translate(42.575 110.559) rotate(-90) scale(13.6169 13.775)">
<stop stop-color="#34D2F4"/>
<stop offset="1" stop-color="#727576" stop-opacity="0"/>
</radialGradient>
<radialGradient id="paint5_radial" cx="0" cy="0" r="1" gradientUnits="userSpaceOnUse" gradientTransform="translate(42.1 109.193) rotate(-90) scale(9.18832 9.5)">
<stop stop-color="#34D2F4"/>
<stop offset="0.0001" stop-color="#34D2F4"/>
<stop offset="1" stop-color="#7E8283" stop-opacity="0"/>
</radialGradient>
</defs>
</svg>
